<?xml version="1.0" encoding="UTF-8" standalone="no"?>
<svg
   x="0"
   y="0"
   width="1400"
   height="361.16916"
   viewBox="0 0 1400.0001 361.16915"
   preserveAspectRatio="xMinYMin"
   version="1.1"
   id="svg13"
   sodipodi:docname="cpansec-logo-light-margin.svg"
   inkscape:version="1.4.2 (2aeb623e1d, 2025-05-12)"
   inkscape:export-filename="../4ac9d551/cpansec-logo-light-margin.png"
   inkscape:export-xdpi="32"
   inkscape:export-ydpi="32"
   xmlns:inkscape="http://www.inkscape.org/namespaces/inkscape"
   xmlns:sodipodi="http://sodipodi.sourceforge.net/DTD/sodipodi-0.dtd"
   xmlns="http://www.w3.org/2000/svg"
   xmlns:svg="http://www.w3.org/2000/svg">
  <defs
     id="defs13" />
  <sodipodi:namedview
     id="namedview13"
     pagecolor="#ffffff"
     bordercolor="#111111"
     borderopacity="1"
     inkscape:showpageshadow="0"
     inkscape:pageopacity="0"
     inkscape:pagecheckerboard="1"
     inkscape:deskcolor="#d1d1d1"
     showguides="false"
     inkscape:zoom="0.68119292"
     inkscape:cx="703.91219"
     inkscape:cy="-75.602665"
     inkscape:window-width="2494"
     inkscape:window-height="1369"
     inkscape:window-x="66"
     inkscape:window-y="32"
     inkscape:window-maximized="1"
     inkscape:current-layer="svg13"
     showgrid="false">
    <inkscape:page
       x="0"
       y="0"
       width="1400.0001"
       height="361.16916"
       id="page2"
       margin="0"
       bleed="0" />
  </sodipodi:namedview>
  <g
     id="g10"
     transform="matrix(1.3361814,0,0,1.3376636,-20.042721,-20.064954)">
    <rect
       style="opacity:0.977462;fill:#ffffff;fill-opacity:1;stroke:none;stroke-width:0.640217;stroke-linecap:round;stroke-linejoin:round;stroke-dasharray:none;stroke-opacity:0;paint-order:markers stroke fill"
       id="rect1"
       width="1047.762"
       height="270"
       x="15"
       y="15" />
    <path
       id="path21-6"
       style="fill:#43424a;stroke-width:0.826933"
       d="m 775.52873,107.81156 c -31.79309,0 -48.42891,22.122 -48.42891,43.97122 0,27.1223 21.85706,31.24895 44.69355,31.24895 5.78861,0 19.87703,-1.27839 20.35517,7.61845 0,10.50316 -4.48896,17.1105 -20.21949,17.1105 -5.93737,0 -13.85373,-1.29945 -17.84368,-7.4634 -4.23333,-6.55339 -12.96661,-8.42488 -19.50399,-4.17989 -6.53848,4.24524 -8.40715,12.99828 -4.17343,19.55246 8.48928,13.13251 23.23261,20.36323 41.52271,20.36323 31.79308,0 48.42729,-21.70287 48.42729,-43.55456 0,-27.06661 -19.8656,-31.4982 -46.4894,-32.48938 -16.54567,0 -18.55771,-2.58869 -18.55771,-8.20798 0,-3.6815 1.45642,-15.69558 20.21787,-15.69558 5.93737,0 13.85947,1.29621 17.84528,7.46016 4.2335,6.55305 12.96739,8.42281 19.50401,4.17667 6.53867,-4.24365 8.40596,-12.99594 4.17181,-19.54922 -8.48927,-13.13004 -23.23099,-20.36163 -41.52108,-20.36163 z"
       sodipodi:nodetypes="ssssscccssssscccs" />
    <path
       d="m 894.72955,236.03308 c -32.90951,0 -50.66708,-22.60422 -50.66708,-43.87378 v -40.37667 c 0,-11.30831 4.19747,-21.92201 11.81685,-29.88703 6.14666,-6.4261 17.46737,-14.08268 36.49098,-14.08268 19.0236,0 30.34431,7.65824 36.49006,14.08268 7.61939,7.96585 11.81519,18.57872 11.81519,29.88703 v 20.45999 a 14.105003,14.136427 0 0 1 -14.1058,14.13642 h -54.29394 v 5.77861 c 0,6.27311 5.98039,15.60258 22.45698,15.60258 6.47495,0 15.93504,-1.82918 19.44786,-3.34908 a 14.106103,14.137527 0 1 1 11.1537,25.9715 c -7.47056,3.22338 -20.62541,5.65043 -30.6048,5.65043 z m -22.45623,-77.92772 h 40.18898 v -6.32273 c 0,-3.68317 -1.44965,-15.69934 -20.09449,-15.69934 -18.64484,0 -20.09449,12.01617 -20.09449,15.69934 z"
       id="path18"
       style="fill:#43424a;stroke-width:0.826933" />
    <path
       id="path21-6-1"
       d="m 1009.0724,236.03308 c -31.79307,0 -48.4277,-22.11799 -48.4277,-43.9697 v -40.28075 c 0,-21.84924 16.63463,-43.97053 48.4277,-43.97053 18.2901,0 33.0327,7.23153 41.522,20.36158 a 14.105003,14.136427 0 0 1 -4.1727,19.54953 14.099214,14.129811 0 0 1 -19.5041,-4.17767 c -3.9858,-6.16396 -11.9078,-7.45977 -17.8452,-7.45977 -18.76148,0 -20.21769,12.01369 -20.21769,15.6952 v 40.27993 c 0,3.68481 1.45621,15.69933 20.21849,15.69933 5.9374,0 13.8545,-1.29828 17.8444,-7.46225 a 14.100869,14.132292 0 0 1 19.5041,-4.18015 14.109965,14.140561 0 0 1 4.1727,19.55202 c -8.4893,13.13252 -23.2319,20.36323 -41.522,20.36323 z"
       style="fill:#43424a;stroke-width:0.826933" />
    <circle
       cx="519.80011"
       r="29.522274"
       cy="211.87683"
       id="circle25"
       style="fill:#da2037;fill-opacity:1;stroke-width:9.84076" />
    <circle
       r="29.522274"
       cy="211.87683"
       cx="598.52618"
       id="circle26"
       style="fill:#da2037;fill-opacity:1;stroke-width:9.84076" />
    <circle
       r="29.522274"
       cy="211.87683"
       cx="677.25226"
       id="circle27"
       style="fill:#da2037;fill-opacity:1;stroke-width:9.84076" />
    <circle
       cx="598.52618"
       r="29.522274"
       cy="54.424713"
       id="circle28"
       style="fill:#da2037;fill-opacity:1;stroke-width:9.84076" />
    <circle
       cy="133.15077"
       r="29.522274"
       cx="677.25226"
       id="circle29"
       style="fill:#da2037;fill-opacity:1;stroke-width:9.84076" />
    <path
       id="path21"
       d="m 73.514494,236.52457 c -31.914081,0 -48.611967,-22.20214 -48.611967,-44.137 v -40.43402 c 0,-21.93237 16.697886,-44.13784 48.611967,-44.13784 18.359708,0 33.158376,7.25905 41.679976,20.43906 a 14.158672,14.190215 0 0 1 -4.18859,19.62392 14.152862,14.183575 0 0 1 -19.578261,-4.19357 c -4.000985,-6.18741 -11.953152,-7.48815 -17.913125,-7.48815 -18.832852,0 -20.294623,12.0594 -20.294623,15.75492 v 40.43319 c 0,3.69883 1.461771,15.75906 20.295453,15.75906 5.959973,0 13.90716,-1.30322 17.912295,-7.49064 a 14.154522,14.186065 0 0 1 19.578261,-4.19605 14.163653,14.194366 0 0 1 4.18859,19.62641 c -8.5216,13.1825 -23.320268,20.44071 -41.679976,20.44071 z"
       style="fill:#43424a;stroke-width:0.83008" />
    <path
       d="m 184.53353,107.81986 c -10.02737,0 -18.54399,2.19141 -25.51666,5.87697 a 14.094756,14.127959 0 0 0 -8.93166,-3.18751 14.161162,14.186065 0 0 0 -14.16116,14.18607 v 136.2078 a 14.161162,14.194366 0 0 0 28.32232,0 V 232.9959 c 5.87697,2.24122 12.64212,3.52784 20.29546,3.52784 31.91657,0 48.60947,-22.20463 48.60947,-44.13534 v -40.43319 c 0,-21.93071 -16.7012,-44.13535 -48.60947,-44.13535 z m 20.29545,84.56854 c 0,3.70215 -1.46094,15.75491 -20.29545,15.75491 -18.83452,0 -20.29546,-12.06106 -20.29546,-15.75491 v -40.43319 c 0,-3.69386 1.46094,-15.75492 20.29546,-15.75492 18.83451,0 20.29545,12.06106 20.29545,15.75492 z"
       id="path22"
       style="fill:#43424a;stroke-width:0.83008" />
    <path
       d="m 296.66901,107.84476 c -12.59231,0 -24.27153,4.41603 -34.73054,13.13187 a 14.152862,14.186065 0 0 0 -1.82617,19.98002 14.161162,14.186065 0 0 0 19.93852,1.83448 c 5.37061,-4.48244 10.64992,-6.56594 16.60989,-6.56594 16.53519,0 22.54497,9.36331 22.54497,15.65531 v 1.55225 c -24.33794,-1.58545 -42.70761,2.62305 -54.71886,12.56741 -8.76564,7.2549 -13.66312,17.13285 -14.17777,28.56305 -0.56445,12.60891 4.71486,24.37114 14.4849,32.2652 7.90236,6.39162 17.91312,9.70363 28.66266,9.70363 4.71485,0 9.56252,-0.63086 14.44339,-1.92578 5.49512,-1.45264 10.13527,-3.73536 14.05325,-6.54103 a 14.119658,14.152862 0 0 0 11.37209,5.76906 h 0.10791 a 14.169463,14.194366 0 0 0 14.16116,-14.18607 l 0.35694,-67.76772 c -0.008,-21.34965 -17.83012,-44.04404 -50.8673,-44.04404 z m 4.00099,99.31906 c -7.12209,1.88428 -13.88724,0.97949 -18.09574,-2.42383 -1.91749,-1.56055 -4.1753,-4.36622 -3.96778,-8.90676 0.15024,-3.33692 1.39453,-5.86036 3.91797,-7.95217 2.69776,-2.23291 10.02737,-6.40821 27.0274,-6.40821 2.91358,0 6.12599,0.12783 9.64553,0.40259 l -0.008,13.77102 c -0.22412,4.1421 -7.2632,8.54152 -18.51078,11.52151 z"
       id="path23"
       style="fill:#43424a;stroke-width:0.83008" />
    <path
       d="m 420.4484,107.81156 c -10.20844,0 -18.87884,2.23098 -25.97743,5.98309 a 14.416875,14.450678 0 0 0 -23.50981,11.20562 v 96.65897 a 14.41688,14.450682 0 1 0 28.83376,0 v -68.91537 c 0,-3.76055 1.48732,-16.0394 20.66193,-16.0394 19.16616,0 20.66193,12.27885 20.66193,16.0394 v 68.91537 a 14.416875,14.450678 0 1 0 28.83375,0 v -68.90691 c -0.008,-22.33517 -17.00279,-44.93231 -49.49568,-44.93231 z"
       id="path24"
       style="fill:#43424a;stroke-width:0.845071" />
  </g>
</svg>
