<?xml version="1.0" encoding="UTF-8" standalone="no"?>
<svg
   x="0"
   y="0"
   width="1238.3837"
   height="301.41089"
   viewBox="0 0 1238.3837 301.41088"
   preserveAspectRatio="xMinYMin"
   version="1.1"
   id="svg13"
   sodipodi:docname="cpansec-logo.svg"
   inkscape:version="1.4 (1:1.4+202410161351+e7c3feb100)"
   inkscape:export-filename="cpansec-logo-light.png"
   inkscape:export-xdpi="32"
   inkscape:export-ydpi="32"
   xmlns:inkscape="http://www.inkscape.org/namespaces/inkscape"
   xmlns:sodipodi="http://sodipodi.sourceforge.net/DTD/sodipodi-0.dtd"
   xmlns="http://www.w3.org/2000/svg"
   xmlns:svg="http://www.w3.org/2000/svg">
  <defs
     id="defs13" />
  <sodipodi:namedview
     id="namedview13"
     pagecolor="#ffffff"
     bordercolor="#111111"
     borderopacity="1"
     inkscape:showpageshadow="0"
     inkscape:pageopacity="0"
     inkscape:pagecheckerboard="1"
     inkscape:deskcolor="#d1d1d1"
     showguides="true"
     inkscape:zoom="0.5398547"
     inkscape:cx="706.67162"
     inkscape:cy="75.020185"
     inkscape:window-width="1860"
     inkscape:window-height="1011"
     inkscape:window-x="60"
     inkscape:window-y="32"
     inkscape:window-maximized="1"
     inkscape:current-layer="svg13"
     showgrid="false" />
  <rect
     style="opacity:0.977462;fill:#ffffff;fill-opacity:1;stroke:none;stroke-width:0.810315;stroke-linecap:round;stroke-linejoin:round;stroke-dasharray:none;stroke-opacity:0;paint-order:markers stroke fill"
     id="rect1"
     width="1359.8508"
     height="345.72235"
     x="-60.733582"
     y="-22.155731"
     rx="98.174561"
     ry="98.174561" />
  <symbol
     id="dots"
     fill="#da2037"
     viewBox="0 0 14 14"
     transform="translate(773.02656,219.31805)">
    <circle
       cx="3"
       r="3"
       cy="19"
       id="circle1" />
    <circle
       r="3"
       cy="19"
       cx="11"
       id="circle2" />
    <circle
       r="3"
       cy="19"
       cx="19"
       id="circle3" />
    <circle
       cx="11"
       r="3"
       cy="3"
       id="circle4" />
    <circle
       cy="11"
       r="3"
       cx="19"
       id="circle5" />
  </symbol>
  <symbol
     id="logo"
     viewBox="0 0 1368 248"
     transform="translate(0,53.410897)">
    <g
       class="text"
       fill="#43424a"
       id="g8">
      <path
         d="m 141.577,46.475 c -17.847,0 -31.74,5.768 -41.507,14.591 -9.768,-8.82 -23.659,-14.59 -41.506,-14.59 -12.073,0 -22.34,2.64 -30.742,7.08 A 17.057,17.095 0 0 0 0,66.81 v 114.384 a 17.06,17.098 0 1 0 34.115,0 V 99.648 c 0,-4.454 1.764,-18.98 24.45,-18.98 22.686,0 24.448,14.53 24.448,18.98 v 81.546 a 17.06,17.098 0 0 0 34.118,0 V 99.648 c 0,-4.454 1.76,-18.98 24.448,-18.98 22.686,0 24.45,14.53 24.45,18.98 v 81.546 a 17.06,17.098 0 1 0 34.114,0 V 99.648 C 200.138,73.226 180.024,46.475 141.577,46.475 Z"
         id="path5" />
      <path
         d="m 286.723,201.531 c -39.797,0 -61.271,-27.335 -61.271,-53.056 V 99.648 c 0,-13.675 5.076,-26.51 14.29,-36.142 7.433,-7.771 21.123,-17.03 44.128,-17.03 23.005,0 36.695,9.261 44.127,17.03 9.214,9.633 14.288,22.467 14.288,36.142 v 24.742 a 17.057,17.095 0 0 1 -17.058,17.095 H 259.57 v 6.988 c 0,7.586 7.232,18.868 27.157,18.868 7.83,0 19.27,-2.212 23.518,-4.05 a 17.058324,17.096325 0 1 1 13.488,31.407 c -9.034,3.898 -24.942,6.833 -37.01,6.833 z m -27.156,-94.237 h 48.6 v -7.646 c 0,-4.454 -1.753,-18.985 -24.3,-18.985 -22.547,0 -24.3,14.531 -24.3,18.985 z"
         id="path6" />
      <path
         d="m 478.863,165.97 a 17.057,17.095 0 0 0 -23.965,-2.747 c -2.826,2.25 -5.793,4.118 -13.49,4.118 -9.977,0 -20.663,-7.785 -20.663,-19.37 V 83.77 h 26.724 a 17.057499,17.0955 0 0 0 0,-34.191 h -26.724 v -32.48 a 17.06,17.098 0 0 0 -34.114,0 v 32.48 h -14.215 a 17.057,17.095 0 0 0 0,34.19 h 14.215 v 64.202 c 0,29.531 24.57,53.558 54.774,53.558 13.993,0 24.7,-3.56 34.718,-11.54 a 17.055,17.093 0 0 0 2.74,-24.02 z"
         id="path7" />
      <path
         d="m 549.421,46.513 c -15.167,0 -29.244,5.324 -41.834,15.819 a 17.057299,17.0953 0 0 0 21.818,26.284 c 6.474,-5.397 12.833,-7.912 20.013,-7.912 19.924,0 27.156,11.281 27.156,18.857 v 1.868 c -29.317,-1.911 -51.448,3.157 -65.92,15.138 -10.555,8.739 -16.46,20.64 -17.073,34.41 -0.68,15.19 5.682,29.36 17.452,38.872 9.523,7.698 21.574,11.69 34.531,11.69 5.672,0 11.519,-0.764 17.399,-2.32 6.615,-1.75 12.213,-4.497 16.924,-7.88 a 17.025,17.063 0 0 0 13.699,6.953 h 0.008 a 17.057,17.095 0 0 0 17.057,-17.087 l 0.04,-81.636 c 0,-25.72 -21.473,-53.056 -61.27,-53.056 z m 4.825,119.649 c -8.573,2.274 -16.725,1.179 -21.801,-2.925 -2.318,-1.876 -5.03,-5.256 -4.785,-10.728 0.179,-4.017 1.68,-7.061 4.723,-9.58 3.256,-2.694 12.073,-7.716 32.557,-7.716 3.515,0 7.386,0.154 11.618,0.485 l -0.005,16.586 c -0.268,4.99 -8.757,10.289 -22.307,13.878 z"
         id="path8" />
    </g>
    <use
       href="#dots"
       x="640"
       y="40"
       width="167.44"
       height="167.44"
       id="use8"
       transform="translate(-773.02656,-219.31805)" />
    <g
       class="text"
       fill="#43424a"
       id="g12">
      <path
         id="path9"
         d="m 892.535,201.531 c -38.447,0 -58.563,-26.747 -58.563,-53.172 V 99.648 c 0,-26.422 20.116,-53.173 58.563,-53.173 22.118,0 39.946,8.745 50.212,24.623 a 17.057,17.095 0 0 1 -5.046,23.641 17.05,17.087 0 0 1 -23.586,-5.052 c -4.82,-7.454 -14.4,-9.021 -21.58,-9.021 -22.688,0 -24.449,14.528 -24.449,18.98 v 48.71 c 0,4.456 1.761,18.985 24.45,18.985 7.18,0 16.754,-1.57 21.579,-9.024 a 17.052,17.09 0 0 1 23.586,-5.055 17.063,17.1 0 0 1 5.046,23.644 c -10.266,15.881 -28.094,24.625 -50.212,24.625 z" />
      <path
         d="m 1026.28,46.48 c -12.08,0 -22.34,2.64 -30.74,7.08 A 16.98,17.02 0 0 0 984.78,49.72 17.06,17.09 0 0 0 967.72,66.81 V 230.9 a 17.06,17.1 0 0 0 34.12,0 v -33.62 c 7.08,2.7 15.23,4.25 24.45,4.25 38.45,0 58.56,-26.75 58.56,-53.17 V 99.65 c 0,-26.42 -20.12,-53.17 -58.56,-53.17 z m 24.45,101.88 c 0,4.46 -1.76,18.98 -24.45,18.98 -22.69,0 -24.45,-14.53 -24.45,-18.98 V 99.65 c 0,-4.45 1.76,-18.98 24.45,-18.98 22.69,0 24.45,14.53 24.45,18.98 z"
         id="path10" />
      <path
         d="m 1161.37,46.51 c -15.17,0 -29.24,5.32 -41.84,15.82 a 17.05,17.09 0 0 0 -2.2,24.07 17.06,17.09 0 0 0 24.02,2.21 c 6.47,-5.4 12.83,-7.91 20.01,-7.91 19.92,0 27.16,11.28 27.16,18.86 v 1.87 c -29.32,-1.91 -51.45,3.16 -65.92,15.14 -10.56,8.74 -16.46,20.64 -17.08,34.41 -0.68,15.19 5.68,29.36 17.45,38.87 9.52,7.7 21.58,11.69 34.53,11.69 5.68,0 11.52,-0.76 17.4,-2.32 6.62,-1.75 12.21,-4.5 16.93,-7.88 a 17.01,17.05 0 0 0 13.7,6.95 h 0.13 a 17.07,17.1 0 0 0 17.06,-17.09 l 0.43,-81.64 C 1223.14,73.84 1201.67,46.5 1161.87,46.5 Z m 4.82,119.65 c -8.58,2.27 -16.73,1.18 -21.8,-2.92 -2.31,-1.88 -5.03,-5.26 -4.78,-10.73 0.181,-4.02 1.68,-7.06 4.72,-9.58 3.25,-2.69 12.08,-7.72 32.56,-7.72 3.51,0 7.38,0.154 11.62,0.485 l -0.01,16.59 c -0.27,4.99 -8.75,10.29 -22.3,13.88 z"
         id="path11" />
      <path
         d="m 1309.43,46.47 c -12.08,0 -22.34,2.64 -30.74,7.08 a 17.06,17.1 0 0 0 -27.82,13.26 v 114.38 a 17.06,17.1 0 1 0 34.12,0 V 99.64 c 0,-4.45 1.76,-18.98 24.45,-18.98 22.68,0 24.45,14.53 24.45,18.98 v 81.55 a 17.06,17.1 0 1 0 34.12,0 V 99.65 C 1368,73.22 1347.89,46.48 1309.44,46.48 Z"
         id="path12" />
    </g>
  </symbol>
  <g
     id="g2"
     transform="translate(0,53.410897)">
    <g
       id="g1"
       transform="matrix(0.99620945,0,0,0.99620945,3.2065689,0.49422125)">
      <path
         id="path21-6"
         style="fill:#43424a"
         d="m 904.50391,46.150715 c -38.44697,0 -58.56446,26.751855 -58.56446,53.173828 0,32.798647 26.43146,37.788957 54.04734,37.788957 7.00009,0 24.03704,-1.54594 24.61524,9.21289 0,12.70135 -5.42843,20.69151 -24.45117,20.69151 -7.17999,0 -16.75313,-1.5714 -21.57813,-9.02539 -5.11931,-7.92493 -15.68036,-10.1881 -23.58593,-5.05469 -7.9069,5.13371 -10.16665,15.71866 -5.04688,23.64454 10.26599,15.88098 28.09491,24.625 50.21289,24.625 38.44696,0 58.5625,-26.24501 58.5625,-52.66998 0,-32.7313 -24.02321,-38.09037 -56.21903,-39.28898 -20.00847,0 -22.44161,-3.13048 -22.44161,-9.92581 0,-4.451996 1.76124,-18.980469 24.44922,-18.980469 7.17999,0 16.76008,1.567492 21.58007,9.021485 5.11952,7.92451 15.68129,10.185583 23.58594,5.050781 7.90714,-5.131785 10.16523,-15.715824 5.04492,-23.640625 C 944.44885,54.895778 926.62188,46.150715 904.50391,46.150715 Z"
         sodipodi:nodetypes="ssssscccssssscccs" />
      <path
         d="m 1048.6519,201.20736 c -39.797,0 -61.27103,-27.335 -61.27103,-53.056 v -48.827 c 0,-13.675 5.076,-26.51 14.29003,-36.142 7.433,-7.771 21.123,-17.03 44.128,-17.03 23.005,0 36.695,9.261 44.127,17.03 9.214,9.633 14.288,22.467 14.288,36.142 v 24.742 a 17.057,17.095 0 0 1 -17.058,17.095 h -65.657 v 6.988 c 0,7.586 7.232,18.868 27.157,18.868 7.83,0 19.27,-2.212 23.518,-4.05 a 17.058324,17.096325 0 1 1 13.488,31.407 c -9.034,3.898 -24.942,6.833 -37.01,6.833 z m -27.156,-94.237 h 48.6 v -7.646 c 0,-4.454 -1.753,-18.985 -24.3,-18.985 -22.547,0 -24.3,14.531 -24.3,18.985 z"
         id="path18"
         style="fill:#43424a" />
      <path
         id="path21-6-1"
         d="m 1186.9253,201.20736 c -38.447,0 -58.563,-26.747 -58.563,-53.172 v -48.711 c 0,-26.422 20.116,-53.173 58.563,-53.173 22.118,0 39.946,8.745 50.212,24.623 a 17.057,17.095 0 0 1 -5.046,23.641 17.05,17.087 0 0 1 -23.586,-5.052 c -4.82,-7.454 -14.4,-9.021 -21.58,-9.021 -22.688,0 -24.449,14.528 -24.449,18.98 v 48.71 c 0,4.456 1.761,18.985 24.45,18.985 7.18,0 16.754,-1.57 21.579,-9.024 a 17.052,17.09 0 0 1 23.586,-5.055 17.063,17.1 0 0 1 5.046,23.644 c -10.266,15.881 -28.094,24.625 -50.212,24.625 z"
         style="fill:#43424a" />
    </g>
    <g
       id="g31"
       transform="matrix(0.9551986,0,0,0.9551986,126.22517,176.45926)"
       style="fill:#da2037;fill-opacity:1">
      <g
         id="use20"
         transform="matrix(12.411235,0,0,12.411235,454.78922,-240.65169)"
         style="fill:#da2037;fill-opacity:1">
        <circle
           cx="3"
           r="3"
           cy="19"
           id="circle25"
           style="fill:#da2037;fill-opacity:1" />
        <circle
           r="3"
           cy="19"
           cx="11"
           id="circle26"
           style="fill:#da2037;fill-opacity:1" />
        <circle
           r="3"
           cy="19"
           cx="19"
           id="circle27"
           style="fill:#da2037;fill-opacity:1" />
        <circle
           cx="11"
           r="3"
           cy="3"
           id="circle28"
           style="fill:#da2037;fill-opacity:1" />
        <circle
           cy="11"
           r="3"
           cx="19"
           id="circle29"
           style="fill:#da2037;fill-opacity:1" />
      </g>
    </g>
    <path
       id="path21"
       d="M 58.563,201.531 C 20.116,201.531 0,174.784 0,148.359 V 99.648 C 0,73.226 20.116,46.475 58.563,46.475 c 22.118,0 39.946,8.745 50.212,24.623 a 17.057,17.095 0 0 1 -5.046,23.641 17.05,17.087 0 0 1 -23.586,-5.052 c -4.82,-7.454 -14.4,-9.021 -21.58,-9.021 -22.688,0 -24.449,14.528 -24.449,18.98 v 48.71 c 0,4.456 1.761,18.985 24.45,18.985 7.18,0 16.754,-1.57 21.579,-9.024 a 17.052,17.09 0 0 1 23.586,-5.055 17.063,17.1 0 0 1 5.046,23.644 c -10.266,15.881 -28.094,24.625 -50.212,24.625 z"
       style="fill:#43424a" />
    <path
       d="m 192.308,46.48 c -12.08,0 -22.34,2.64 -30.74,7.08 a 16.98,17.02 0 0 0 -10.76,-3.84 17.06,17.09 0 0 0 -17.06,17.09 V 230.9 a 17.06,17.1 0 0 0 34.12,0 v -33.62 c 7.08,2.7 15.23,4.25 24.45,4.25 38.45,0 58.56,-26.75 58.56,-53.17 V 99.65 c 0,-26.42 -20.12,-53.17 -58.56,-53.17 z m 24.45,101.88 c 0,4.46 -1.76,18.98 -24.45,18.98 -22.69,0 -24.45,-14.53 -24.45,-18.98 V 99.65 c 0,-4.45 1.76,-18.98 24.45,-18.98 22.69,0 24.45,14.53 24.45,18.98 z"
       id="path22"
       style="fill:#43424a" />
    <path
       d="m 327.398,46.51 c -15.17,0 -29.24,5.32 -41.84,15.82 a 17.05,17.09 0 0 0 -2.2,24.07 17.06,17.09 0 0 0 24.02,2.21 c 6.47,-5.4 12.83,-7.91 20.01,-7.91 19.92,0 27.16,11.28 27.16,18.86 v 1.87 c -29.32,-1.91 -51.45,3.16 -65.92,15.14 -10.56,8.74 -16.46,20.64 -17.08,34.41 -0.68,15.19 5.68,29.36 17.45,38.87 9.52,7.7 21.58,11.69 34.53,11.69 5.68,0 11.52,-0.76 17.4,-2.32 6.62,-1.75 12.21,-4.5 16.93,-7.88 a 17.01,17.05 0 0 0 13.7,6.95 h 0.13 a 17.07,17.1 0 0 0 17.06,-17.09 l 0.43,-81.64 C 389.168,73.84 367.698,46.5 327.898,46.5 Z m 4.82,119.65 c -8.58,2.27 -16.73,1.18 -21.8,-2.92 -2.31,-1.88 -5.03,-5.26 -4.78,-10.73 0.181,-4.02 1.68,-7.06 4.72,-9.58 3.25,-2.69 12.08,-7.72 32.56,-7.72 3.51,0 7.38,0.154 11.62,0.485 l -0.01,16.59 c -0.27,4.99 -8.75,10.29 -22.3,13.88 z"
       id="path23"
       style="fill:#43424a" />
    <path
       d="m 476.51544,46.47 c -12.29814,0 -22.7434,2.687671 -31.29509,7.207846 A 17.368058,17.40878 0 0 0 416.898,67.177286 V 183.62268 a 17.36806,17.408782 0 1 0 34.73612,0 v -83.02257 c 0,-4.530357 1.79178,-19.32273 24.8915,-19.32273 23.08954,0 24.8915,14.792373 24.8915,19.32273 v 83.02257 a 17.368058,17.40878 0 1 0 34.73611,0 V 100.61029 C 536.14305,73.703033 515.66992,46.480181 476.52562,46.480181 Z"
       id="path24"
       style="fill:#43424a;stroke-width:1.01806" />
  </g>
</svg>
