<?xml version="1.0" encoding="UTF-8" standalone="no"?>
<svg
   x="0"
   y="0"
   width="500"
   height="500"
   viewBox="0 0 500.00629 500.0063"
   preserveAspectRatio="xMinYMin"
   version="1.1"
   id="svg13"
   sodipodi:docname="cpansec-floater-light-square.svg"
   inkscape:version="1.4.2 (2aeb623e1d, 2025-05-12)"
   inkscape:export-filename="../71be9b8d/cpansec-floater.png"
   inkscape:export-xdpi="76.800003"
   inkscape:export-ydpi="76.800003"
   xmlns:inkscape="http://www.inkscape.org/namespaces/inkscape"
   xmlns:sodipodi="http://sodipodi.sourceforge.net/DTD/sodipodi-0.dtd"
   xmlns="http://www.w3.org/2000/svg"
   xmlns:svg="http://www.w3.org/2000/svg">
  <defs
     id="defs13" />
  <sodipodi:namedview
     id="namedview13"
     pagecolor="#ffffff"
     bordercolor="#111111"
     borderopacity="1"
     inkscape:showpageshadow="0"
     inkscape:pageopacity="0"
     inkscape:pagecheckerboard="1"
     inkscape:deskcolor="#d1d1d1"
     showguides="true"
     inkscape:zoom="1.4142136"
     inkscape:cx="277.5394"
     inkscape:cy="274.35742"
     inkscape:window-width="2405"
     inkscape:window-height="1220"
     inkscape:window-x="66"
     inkscape:window-y="169"
     inkscape:window-maximized="0"
     inkscape:current-layer="svg13"
     showgrid="false"
     inkscape:document-units="mm">
    <sodipodi:guide
       position="100.00126,587.69957"
       orientation="-1,0"
       id="guide1"
       inkscape:locked="false"
       inkscape:label=""
       inkscape:color="rgb(0,134,229)" />
    <sodipodi:guide
       position="470.12862,203.43957"
       orientation="0,1"
       id="guide2"
       inkscape:locked="false"
       inkscape:label=""
       inkscape:color="rgb(0,134,229)" />
    <sodipodi:guide
       position="547.47944,118.55815"
       orientation="0,-1"
       id="guide3"
       inkscape:locked="false" />
    <sodipodi:guide
       position="635.74211,428.47065"
       orientation="0,-1"
       id="guide4"
       inkscape:locked="false" />
    <sodipodi:guide
       position="689.55672,342.60181"
       orientation="0,-1"
       id="guide5"
       inkscape:locked="false" />
    <sodipodi:guide
       position="573.47081,251.10158"
       orientation="0,-1"
       id="guide6"
       inkscape:locked="false" />
    <sodipodi:guide
       position="248.90472,537.48343"
       orientation="1,0"
       id="guide7"
       inkscape:locked="false" />
  </sodipodi:namedview>
  <rect
     style="fill:#ffffff;fill-opacity:1;stroke-width:1.00001"
     id="rect7"
     width="500.00629"
     height="500.00629"
     x="4.1894532e-06"
     y="4.1894532e-06" />
  <symbol
     id="logo"
     viewBox="0 0 1368 248"
     transform="translate(0.0025,53.410897)">
    <g
       class="text"
       fill="#43424a"
       id="g8">
      <path
         d="m 141.577,46.475 c -17.847,0 -31.74,5.768 -41.507,14.591 -9.768,-8.82 -23.659,-14.59 -41.506,-14.59 -12.073,0 -22.34,2.64 -30.742,7.08 A 17.057,17.095 0 0 0 0,66.81 v 114.384 a 17.06,17.098 0 1 0 34.115,0 V 99.648 c 0,-4.454 1.764,-18.98 24.45,-18.98 22.686,0 24.448,14.53 24.448,18.98 v 81.546 a 17.06,17.098 0 0 0 34.118,0 V 99.648 c 0,-4.454 1.76,-18.98 24.448,-18.98 22.686,0 24.45,14.53 24.45,18.98 v 81.546 a 17.06,17.098 0 1 0 34.114,0 V 99.648 C 200.138,73.226 180.024,46.475 141.577,46.475 Z"
         id="path5" />
      <path
         d="m 286.723,201.531 c -39.797,0 -61.271,-27.335 -61.271,-53.056 V 99.648 c 0,-13.675 5.076,-26.51 14.29,-36.142 7.433,-7.771 21.123,-17.03 44.128,-17.03 23.005,0 36.695,9.261 44.127,17.03 9.214,9.633 14.288,22.467 14.288,36.142 v 24.742 a 17.057,17.095 0 0 1 -17.058,17.095 H 259.57 v 6.988 c 0,7.586 7.232,18.868 27.157,18.868 7.83,0 19.27,-2.212 23.518,-4.05 a 17.058324,17.096325 0 1 1 13.488,31.407 c -9.034,3.898 -24.942,6.833 -37.01,6.833 z m -27.156,-94.237 h 48.6 v -7.646 c 0,-4.454 -1.753,-18.985 -24.3,-18.985 -22.547,0 -24.3,14.531 -24.3,18.985 z"
         id="path6" />
      <path
         d="m 478.863,165.97 a 17.057,17.095 0 0 0 -23.965,-2.747 c -2.826,2.25 -5.793,4.118 -13.49,4.118 -9.977,0 -20.663,-7.785 -20.663,-19.37 V 83.77 h 26.724 a 17.057499,17.0955 0 0 0 0,-34.191 h -26.724 v -32.48 a 17.06,17.098 0 0 0 -34.114,0 v 32.48 h -14.215 a 17.057,17.095 0 0 0 0,34.19 h 14.215 v 64.202 c 0,29.531 24.57,53.558 54.774,53.558 13.993,0 24.7,-3.56 34.718,-11.54 a 17.055,17.093 0 0 0 2.74,-24.02 z"
         id="path7" />
      <path
         d="m 549.421,46.513 c -15.167,0 -29.244,5.324 -41.834,15.819 a 17.057299,17.0953 0 0 0 21.818,26.284 c 6.474,-5.397 12.833,-7.912 20.013,-7.912 19.924,0 27.156,11.281 27.156,18.857 v 1.868 c -29.317,-1.911 -51.448,3.157 -65.92,15.138 -10.555,8.739 -16.46,20.64 -17.073,34.41 -0.68,15.19 5.682,29.36 17.452,38.872 9.523,7.698 21.574,11.69 34.531,11.69 5.672,0 11.519,-0.764 17.399,-2.32 6.615,-1.75 12.213,-4.497 16.924,-7.88 a 17.025,17.063 0 0 0 13.699,6.953 h 0.008 a 17.057,17.095 0 0 0 17.057,-17.087 l 0.04,-81.636 c 0,-25.72 -21.473,-53.056 -61.27,-53.056 z m 4.825,119.649 c -8.573,2.274 -16.725,1.179 -21.801,-2.925 -2.318,-1.876 -5.03,-5.256 -4.785,-10.728 0.179,-4.017 1.68,-7.061 4.723,-9.58 3.256,-2.694 12.073,-7.716 32.557,-7.716 3.515,0 7.386,0.154 11.618,0.485 l -0.005,16.586 c -0.268,4.99 -8.757,10.289 -22.307,13.878 z"
         id="path8" />
    </g>
    <g
       id="use8"
       transform="matrix(11.96,0,0,11.96,640,40)">
      <circle
         cx="3"
         r="3"
         cy="19"
         id="circle6" />
      <circle
         r="3"
         cy="19"
         cx="11"
         id="circle7" />
      <circle
         r="3"
         cy="19"
         cx="19"
         id="circle8" />
      <circle
         cx="11"
         r="3"
         cy="3"
         id="circle9" />
      <circle
         cy="11"
         r="3"
         cx="19"
         id="circle10" />
    </g>
    <g
       class="text"
       fill="#43424a"
       id="g12">
      <path
         id="path9"
         d="m 892.535,201.531 c -38.447,0 -58.563,-26.747 -58.563,-53.172 V 99.648 c 0,-26.422 20.116,-53.173 58.563,-53.173 22.118,0 39.946,8.745 50.212,24.623 a 17.057,17.095 0 0 1 -5.046,23.641 17.05,17.087 0 0 1 -23.586,-5.052 c -4.82,-7.454 -14.4,-9.021 -21.58,-9.021 -22.688,0 -24.449,14.528 -24.449,18.98 v 48.71 c 0,4.456 1.761,18.985 24.45,18.985 7.18,0 16.754,-1.57 21.579,-9.024 a 17.052,17.09 0 0 1 23.586,-5.055 17.063,17.1 0 0 1 5.046,23.644 c -10.266,15.881 -28.094,24.625 -50.212,24.625 z" />
      <path
         d="m 1026.28,46.48 c -12.08,0 -22.34,2.64 -30.74,7.08 A 16.98,17.02 0 0 0 984.78,49.72 17.06,17.09 0 0 0 967.72,66.81 V 230.9 a 17.06,17.1 0 0 0 34.12,0 v -33.62 c 7.08,2.7 15.23,4.25 24.45,4.25 38.45,0 58.56,-26.75 58.56,-53.17 V 99.65 c 0,-26.42 -20.12,-53.17 -58.56,-53.17 z m 24.45,101.88 c 0,4.46 -1.76,18.98 -24.45,18.98 -22.69,0 -24.45,-14.53 -24.45,-18.98 V 99.65 c 0,-4.45 1.76,-18.98 24.45,-18.98 22.69,0 24.45,14.53 24.45,18.98 z"
         id="path10" />
      <path
         d="m 1161.37,46.51 c -15.17,0 -29.24,5.32 -41.84,15.82 a 17.05,17.09 0 0 0 -2.2,24.07 17.06,17.09 0 0 0 24.02,2.21 c 6.47,-5.4 12.83,-7.91 20.01,-7.91 19.92,0 27.16,11.28 27.16,18.86 v 1.87 c -29.32,-1.91 -51.45,3.16 -65.92,15.14 -10.56,8.74 -16.46,20.64 -17.08,34.41 -0.68,15.19 5.68,29.36 17.45,38.87 9.52,7.7 21.58,11.69 34.53,11.69 5.68,0 11.52,-0.76 17.4,-2.32 6.62,-1.75 12.21,-4.5 16.93,-7.88 a 17.01,17.05 0 0 0 13.7,6.95 h 0.13 a 17.07,17.1 0 0 0 17.06,-17.09 l 0.43,-81.64 C 1223.14,73.84 1201.67,46.5 1161.87,46.5 Z m 4.82,119.65 c -8.58,2.27 -16.73,1.18 -21.8,-2.92 -2.31,-1.88 -5.03,-5.26 -4.78,-10.73 0.181,-4.02 1.68,-7.06 4.72,-9.58 3.25,-2.69 12.08,-7.72 32.56,-7.72 3.51,0 7.38,0.154 11.62,0.485 l -0.01,16.59 c -0.27,4.99 -8.75,10.29 -22.3,13.88 z"
         id="path11" />
      <path
         d="m 1309.43,46.47 c -12.08,0 -22.34,2.64 -30.74,7.08 a 17.06,17.1 0 0 0 -27.82,13.26 v 114.38 a 17.06,17.1 0 1 0 34.12,0 V 99.64 c 0,-4.45 1.76,-18.98 24.45,-18.98 22.68,0 24.45,14.53 24.45,18.98 v 81.55 a 17.06,17.1 0 1 0 34.12,0 V 99.65 C 1368,73.22 1347.89,46.48 1309.44,46.48 Z"
         id="path12" />
    </g>
  </symbol>
  <g
     id="g20"
     transform="matrix(6.2443072,0,0,6.2443072,-673.2039,7.4159976)"
     style="fill:#da2037;fill-opacity:1">
    <g
       id="g19"
       style="fill:#da2037;fill-opacity:1" />
    <g
       id="g17"
       transform="matrix(0.85055941,0,0,0.85055941,5.5847924,1.886058)"
       style="fill:#da2037;fill-opacity:1">
      <path
         id="circle28"
         style="fill:#da2037;fill-opacity:1;stroke-width:2.65222"
         d="m 175.21484,21.486668 a 7.9566722,7.9566722 0 0 1 -7.95668,7.956672 7.9566722,7.9566722 0 0 1 -7.95667,-7.956672 7.9566722,7.9566722 0 0 1 7.95667,-7.956673 7.9566722,7.9566722 0 0 1 7.95668,7.956673 z" />
      <path
         id="circle25"
         style="fill:#da2037;fill-opacity:1;stroke-width:2.65222"
         d="m 153.99705,63.922253 a 7.9566722,7.9566722 0 0 1 -7.95668,7.956672 7.9566722,7.9566722 0 0 1 -7.95667,-7.956672 7.9566722,7.9566722 0 0 1 7.95667,-7.956673 7.9566722,7.9566722 0 0 1 7.95668,7.956673 z" />
      <path
         id="circle26"
         style="fill:#da2037;fill-opacity:1;stroke-width:2.65222"
         d="m 175.21484,63.922253 a 7.9566722,7.9566722 0 0 1 -7.95668,7.956672 7.9566722,7.9566722 0 0 1 -7.95667,-7.956672 7.9566722,7.9566722 0 0 1 7.95667,-7.956673 7.9566722,7.9566722 0 0 1 7.95668,7.956673 z" />
      <path
         id="circle27"
         style="fill:#da2037;fill-opacity:1;stroke-width:2.65222"
         d="m 196.43262,63.922253 a 7.9566722,7.9566722 0 0 1 -7.95667,7.956672 7.9566722,7.9566722 0 0 1 -7.95667,-7.956672 7.9566722,7.9566722 0 0 1 7.95667,-7.956673 7.9566722,7.9566722 0 0 1 7.95667,7.956673 z" />
      <path
         id="circle29"
         style="fill:#da2037;fill-opacity:1;stroke-width:2.65222"
         d="m 196.43262,42.70446 a 7.9566722,7.9566722 0 0 1 -7.95667,7.956672 7.9566722,7.9566722 0 0 1 -7.95667,-7.956672 7.9566722,7.9566722 0 0 1 7.95667,-7.956672 7.9566722,7.9566722 0 0 1 7.95667,7.956672 z" />
    </g>
  </g>
</svg>
