<?xml version="1.0" encoding="UTF-8" standalone="no"?>
<svg
   x="0"
   y="0"
   width="71mm"
   height="25mm"
   viewBox="0 0 268.34983 94.48938"
   preserveAspectRatio="xMinYMin"
   version="1.1"
   id="svg13"
   sodipodi:docname="cpansec-logo-dark-1.svg"
   inkscape:version="1.4 (1:1.4+202410161351+e7c3feb100)"
   inkscape:export-filename="cpansec-logo-dark.png"
   inkscape:export-xdpi="600"
   inkscape:export-ydpi="600"
   xmlns:inkscape="http://www.inkscape.org/namespaces/inkscape"
   xmlns:sodipodi="http://sodipodi.sourceforge.net/DTD/sodipodi-0.dtd"
   xmlns="http://www.w3.org/2000/svg"
   xmlns:svg="http://www.w3.org/2000/svg">
  <defs
     id="defs13" />
  <sodipodi:namedview
     id="namedview13"
     pagecolor="#ffffff"
     bordercolor="#111111"
     borderopacity="1"
     inkscape:showpageshadow="0"
     inkscape:pageopacity="0"
     inkscape:pagecheckerboard="1"
     inkscape:deskcolor="#d1d1d1"
     showguides="true"
     inkscape:zoom="9.4503627"
     inkscape:cx="70.63221"
     inkscape:cy="57.087756"
     inkscape:window-width="1860"
     inkscape:window-height="1011"
     inkscape:window-x="60"
     inkscape:window-y="32"
     inkscape:window-maximized="1"
     inkscape:current-layer="svg13"
     showgrid="false"
     inkscape:document-units="mm">
    <sodipodi:guide
       position="29.311136,62.009469"
       orientation="0,1"
       id="guide13"
       inkscape:locked="false"
       inkscape:label=""
       inkscape:color="rgb(0,134,229)" />
    <sodipodi:guide
       position="28.098091,32.500284"
       orientation="0,-1"
       id="guide14"
       inkscape:locked="false" />
    <sodipodi:guide
       position="289.71557,40.437712"
       orientation="1,0"
       id="guide15"
       inkscape:locked="false" />
    <sodipodi:guide
       position="32.479908,61.439465"
       orientation="-1,0"
       id="guide16"
       inkscape:locked="false"
       inkscape:label=""
       inkscape:color="rgb(0,134,229)" />
    <sodipodi:guide
       position="180.32869,127.13334"
       orientation="0,-1"
       id="guide18"
       inkscape:locked="false" />
  </sodipodi:namedview>
  <rect
     style="opacity:0.977462;fill:#43424a;fill-opacity:1;stroke-width:1.73821;stroke-linecap:round;stroke-linejoin:round;stroke-dasharray:1.73821, 5.21463;paint-order:markers stroke fill"
     id="rect10"
     width="268.34982"
     height="94.48938"
     x="2.7755576e-17"
     y="-5.5511151e-17"
     rx="18.897875"
     ry="18.897875" />
  <symbol
     id="logo"
     viewBox="0 0 1368 248"
     transform="translate(0.0025,53.410897)">
    <g
       class="text"
       fill="#43424a"
       id="g8">
      <path
         d="m 141.577,46.475 c -17.847,0 -31.74,5.768 -41.507,14.591 -9.768,-8.82 -23.659,-14.59 -41.506,-14.59 -12.073,0 -22.34,2.64 -30.742,7.08 A 17.057,17.095 0 0 0 0,66.81 v 114.384 a 17.06,17.098 0 1 0 34.115,0 V 99.648 c 0,-4.454 1.764,-18.98 24.45,-18.98 22.686,0 24.448,14.53 24.448,18.98 v 81.546 a 17.06,17.098 0 0 0 34.118,0 V 99.648 c 0,-4.454 1.76,-18.98 24.448,-18.98 22.686,0 24.45,14.53 24.45,18.98 v 81.546 a 17.06,17.098 0 1 0 34.114,0 V 99.648 C 200.138,73.226 180.024,46.475 141.577,46.475 Z"
         id="path5" />
      <path
         d="m 286.723,201.531 c -39.797,0 -61.271,-27.335 -61.271,-53.056 V 99.648 c 0,-13.675 5.076,-26.51 14.29,-36.142 7.433,-7.771 21.123,-17.03 44.128,-17.03 23.005,0 36.695,9.261 44.127,17.03 9.214,9.633 14.288,22.467 14.288,36.142 v 24.742 a 17.057,17.095 0 0 1 -17.058,17.095 H 259.57 v 6.988 c 0,7.586 7.232,18.868 27.157,18.868 7.83,0 19.27,-2.212 23.518,-4.05 a 17.058324,17.096325 0 1 1 13.488,31.407 c -9.034,3.898 -24.942,6.833 -37.01,6.833 z m -27.156,-94.237 h 48.6 v -7.646 c 0,-4.454 -1.753,-18.985 -24.3,-18.985 -22.547,0 -24.3,14.531 -24.3,18.985 z"
         id="path6" />
      <path
         d="m 478.863,165.97 a 17.057,17.095 0 0 0 -23.965,-2.747 c -2.826,2.25 -5.793,4.118 -13.49,4.118 -9.977,0 -20.663,-7.785 -20.663,-19.37 V 83.77 h 26.724 a 17.057499,17.0955 0 0 0 0,-34.191 h -26.724 v -32.48 a 17.06,17.098 0 0 0 -34.114,0 v 32.48 h -14.215 a 17.057,17.095 0 0 0 0,34.19 h 14.215 v 64.202 c 0,29.531 24.57,53.558 54.774,53.558 13.993,0 24.7,-3.56 34.718,-11.54 a 17.055,17.093 0 0 0 2.74,-24.02 z"
         id="path7" />
      <path
         d="m 549.421,46.513 c -15.167,0 -29.244,5.324 -41.834,15.819 a 17.057299,17.0953 0 0 0 21.818,26.284 c 6.474,-5.397 12.833,-7.912 20.013,-7.912 19.924,0 27.156,11.281 27.156,18.857 v 1.868 c -29.317,-1.911 -51.448,3.157 -65.92,15.138 -10.555,8.739 -16.46,20.64 -17.073,34.41 -0.68,15.19 5.682,29.36 17.452,38.872 9.523,7.698 21.574,11.69 34.531,11.69 5.672,0 11.519,-0.764 17.399,-2.32 6.615,-1.75 12.213,-4.497 16.924,-7.88 a 17.025,17.063 0 0 0 13.699,6.953 h 0.008 a 17.057,17.095 0 0 0 17.057,-17.087 l 0.04,-81.636 c 0,-25.72 -21.473,-53.056 -61.27,-53.056 z m 4.825,119.649 c -8.573,2.274 -16.725,1.179 -21.801,-2.925 -2.318,-1.876 -5.03,-5.256 -4.785,-10.728 0.179,-4.017 1.68,-7.061 4.723,-9.58 3.256,-2.694 12.073,-7.716 32.557,-7.716 3.515,0 7.386,0.154 11.618,0.485 l -0.005,16.586 c -0.268,4.99 -8.757,10.289 -22.307,13.878 z"
         id="path8" />
    </g>
    <g
       id="use8"
       transform="matrix(11.96,0,0,11.96,640,40)">
      <circle
         cx="3"
         r="3"
         cy="19"
         id="circle6" />
      <circle
         r="3"
         cy="19"
         cx="11"
         id="circle7" />
      <circle
         r="3"
         cy="19"
         cx="19"
         id="circle8" />
      <circle
         cx="11"
         r="3"
         cy="3"
         id="circle9" />
      <circle
         cy="11"
         r="3"
         cx="19"
         id="circle10" />
    </g>
    <g
       class="text"
       fill="#43424a"
       id="g12">
      <path
         id="path9"
         d="m 892.535,201.531 c -38.447,0 -58.563,-26.747 -58.563,-53.172 V 99.648 c 0,-26.422 20.116,-53.173 58.563,-53.173 22.118,0 39.946,8.745 50.212,24.623 a 17.057,17.095 0 0 1 -5.046,23.641 17.05,17.087 0 0 1 -23.586,-5.052 c -4.82,-7.454 -14.4,-9.021 -21.58,-9.021 -22.688,0 -24.449,14.528 -24.449,18.98 v 48.71 c 0,4.456 1.761,18.985 24.45,18.985 7.18,0 16.754,-1.57 21.579,-9.024 a 17.052,17.09 0 0 1 23.586,-5.055 17.063,17.1 0 0 1 5.046,23.644 c -10.266,15.881 -28.094,24.625 -50.212,24.625 z" />
      <path
         d="m 1026.28,46.48 c -12.08,0 -22.34,2.64 -30.74,7.08 A 16.98,17.02 0 0 0 984.78,49.72 17.06,17.09 0 0 0 967.72,66.81 V 230.9 a 17.06,17.1 0 0 0 34.12,0 v -33.62 c 7.08,2.7 15.23,4.25 24.45,4.25 38.45,0 58.56,-26.75 58.56,-53.17 V 99.65 c 0,-26.42 -20.12,-53.17 -58.56,-53.17 z m 24.45,101.88 c 0,4.46 -1.76,18.98 -24.45,18.98 -22.69,0 -24.45,-14.53 -24.45,-18.98 V 99.65 c 0,-4.45 1.76,-18.98 24.45,-18.98 22.69,0 24.45,14.53 24.45,18.98 z"
         id="path10" />
      <path
         d="m 1161.37,46.51 c -15.17,0 -29.24,5.32 -41.84,15.82 a 17.05,17.09 0 0 0 -2.2,24.07 17.06,17.09 0 0 0 24.02,2.21 c 6.47,-5.4 12.83,-7.91 20.01,-7.91 19.92,0 27.16,11.28 27.16,18.86 v 1.87 c -29.32,-1.91 -51.45,3.16 -65.92,15.14 -10.56,8.74 -16.46,20.64 -17.08,34.41 -0.68,15.19 5.68,29.36 17.45,38.87 9.52,7.7 21.58,11.69 34.53,11.69 5.68,0 11.52,-0.76 17.4,-2.32 6.62,-1.75 12.21,-4.5 16.93,-7.88 a 17.01,17.05 0 0 0 13.7,6.95 h 0.13 a 17.07,17.1 0 0 0 17.06,-17.09 l 0.43,-81.64 C 1223.14,73.84 1201.67,46.5 1161.87,46.5 Z m 4.82,119.65 c -8.58,2.27 -16.73,1.18 -21.8,-2.92 -2.31,-1.88 -5.03,-5.26 -4.78,-10.73 0.181,-4.02 1.68,-7.06 4.72,-9.58 3.25,-2.69 12.08,-7.72 32.56,-7.72 3.51,0 7.38,0.154 11.62,0.485 l -0.01,16.59 c -0.27,4.99 -8.75,10.29 -22.3,13.88 z"
         id="path11" />
      <path
         d="m 1309.43,46.47 c -12.08,0 -22.34,2.64 -30.74,7.08 a 17.06,17.1 0 0 0 -27.82,13.26 v 114.38 a 17.06,17.1 0 1 0 34.12,0 V 99.64 c 0,-4.45 1.76,-18.98 24.45,-18.98 22.68,0 24.45,14.53 24.45,18.98 v 81.55 a 17.06,17.1 0 1 0 34.12,0 V 99.65 C 1368,73.22 1347.89,46.48 1309.44,46.48 Z"
         id="path12" />
    </g>
  </symbol>
  <g
     id="g20"
     transform="matrix(0.90483157,0,0,0.90483157,12.769217,5.7946213)">
    <g
       id="g19">
      <path
         id="path21-6"
         style="fill:#ffffff;stroke-width:0.189564"
         d="m 188.42348,32.490885 c -7.28818,0 -11.10174,5.0712 -11.10174,10.079866 0,6.217457 5.01046,7.163442 10.24545,7.163442 1.32697,0 4.55657,-0.293056 4.66618,1.746436 0,2.407724 -1.02904,3.922374 -4.63507,3.922374 -1.36108,0 -3.1758,-0.297882 -4.09045,-1.710892 -0.97044,-1.502286 -2.97244,-1.931302 -4.47105,-0.95819 -1.49887,0.973169 -1.92724,2.979699 -0.95671,4.482164 1.94606,3.010468 5.32579,4.668024 9.51857,4.668024 7.28818,0 11.10137,-4.975121 11.10137,-9.984355 0,-6.20469 -4.55395,-7.220579 -10.65713,-7.447792 -3.79289,0 -4.25413,-0.593428 -4.25413,-1.881582 0,-0.843939 0.33387,-3.598021 4.63471,-3.598021 1.36106,0 3.17711,0.297141 4.0908,1.710153 0.97048,1.502205 2.97262,1.930824 4.47106,0.957448 1.49892,-0.972804 1.92697,-2.979161 0.95634,-4.481421 -1.94607,-3.009901 -5.32542,-4.667654 -9.5182,-4.667654 z"
         sodipodi:nodetypes="ssssscccssssscccs" />
      <path
         d="m 215.74881,61.884109 c -7.5441,0 -11.61481,-5.181744 -11.61481,-10.05753 v -9.255863 c 0,-2.592293 0.96223,-5.025352 2.70888,-6.851237 1.40903,-1.473105 4.00417,-3.228282 8.3651,-3.228282 4.36093,0 6.95606,1.755556 8.36491,3.228282 1.74665,1.826074 2.7085,4.258944 2.7085,6.851237 v 4.690204 a 3.2334003,3.2406038 0 0 1 -3.2336,3.240603 h -12.44622 v 1.324676 c 0,1.438036 1.37093,3.576701 5.148,3.576701 1.48428,0 3.6529,-0.419316 4.45817,-0.767735 a 3.2336524,3.240856 0 1 1 2.55685,5.95365 c -1.71252,0.738921 -4.72811,1.295294 -7.01578,1.295294 z M 210.601,44.020126 h 9.21283 v -1.44941 c 0,-0.844319 -0.3323,-3.598881 -4.60642,-3.598881 -4.27411,0 -4.60641,2.754562 -4.60641,3.598881 z"
         id="path18"
         style="fill:#ffffff;stroke-width:0.189564" />
      <path
         id="path21-6-1"
         d="m 241.96053,61.884109 c -7.28818,0 -11.10146,-5.07028 -11.10146,-10.07952 v -9.233873 c 0,-5.008671 3.81328,-10.079709 11.10146,-10.079709 4.19278,0 7.57234,1.657741 9.5184,4.667645 a 3.2334003,3.2406038 0 0 1 -0.95654,4.481493 3.2320734,3.2390872 0 0 1 -4.47106,-0.95768 c -0.9137,-1.413013 -2.72973,-1.710061 -4.0908,-1.710061 -4.30084,0 -4.63467,2.753993 -4.63467,3.597933 v 9.233683 c 0,0.844699 0.33383,3.59888 4.63485,3.59888 1.36108,0 3.17597,-0.297615 4.09062,-1.710629 a 3.2324525,3.239656 0 0 1 4.47106,-0.958247 3.2345378,3.2415517 0 0 1 0.95654,4.482061 c -1.94606,3.010472 -5.32562,4.668024 -9.5184,4.668024 z"
         style="fill:#ffffff;stroke-width:0.189564" />
    </g>
    <g
       id="g18">
      <path
         d="m 52.945018,32.490885 c -2.298651,0 -4.250983,0.502354 -5.849383,1.347224 a 3.2310514,3.2386628 0 0 0 -2.047474,-0.730698 3.2462743,3.2519828 0 0 0 -3.246274,3.251983 v 31.223983 a 3.2462743,3.2538857 0 0 0 6.492548,0 v -6.397406 c 1.347223,0.513772 2.898051,0.808714 4.652486,0.808714 7.316485,0 11.143131,-5.090143 11.143131,-10.117491 v -9.268817 c 0,-5.027349 -3.828548,-10.117492 -11.143131,-10.117492 z m 4.652485,19.386309 c 0,0.848674 -0.334903,3.611623 -4.652485,3.611623 -4.317583,0 -4.652486,-2.764852 -4.652486,-3.611623 v -9.268817 c 0,-0.846772 0.334903,-3.611623 4.652486,-3.611623 4.317582,0 4.652485,2.764851 4.652485,3.611623 z"
         id="path22"
         style="fill:#ffffff;stroke-width:0.190285" />
      <path
         id="path21"
         d="m 27.495255,61.996779 c -7.315914,0 -11.143702,-5.089572 -11.143702,-10.117872 v -9.269008 c 0,-5.027729 3.827788,-10.118062 11.143702,-10.118062 4.208739,0 7.601153,1.664049 9.554626,4.685405 A 3.2457034,3.2529343 0 0 1 36.0897,41.675787 3.2443714,3.251412 0 0 1 31.601621,40.714463 c -0.917178,-1.418389 -2.740114,-1.716567 -4.106366,-1.716567 -4.317203,0 -4.652296,2.764471 -4.652296,3.611623 v 9.268817 c 0,0.847913 0.335093,3.612574 4.652486,3.612574 1.366252,0 3.188047,-0.298748 4.106176,-1.717138 a 3.244752,3.2519828 0 0 1 4.488079,-0.961894 3.2468451,3.2538857 0 0 1 0.960181,4.499115 c -1.953473,3.021927 -5.345887,4.685786 -9.554626,4.685786 z"
         style="fill:#ffffff;stroke-width:0.190285" />
      <path
         d="m 78.650715,32.498497 c -2.886635,0 -5.563954,1.01232 -7.961555,3.01032 a 3.2443714,3.2519828 0 0 0 -0.418628,4.580177 3.2462743,3.2519828 0 0 0 4.570663,0.420531 c 1.231148,-1.027542 2.441366,-1.505159 3.807617,-1.505159 3.790492,0 5.16816,2.146422 5.16816,3.588788 v 0.355834 c -5.579177,-0.363445 -9.7902,0.601303 -12.543635,2.880926 -2.009416,1.663097 -3.132102,3.927497 -3.250079,6.547731 -0.129395,2.890441 1.080823,5.586789 3.320485,7.396406 1.81152,1.4652 4.106366,2.22444 6.570566,2.22444 1.080823,0 2.192091,-0.144617 3.310972,-0.441462 1.259691,-0.333 2.323389,-0.856287 3.221537,-1.499452 a 3.23676,3.2443714 0 0 0 2.606914,1.322486 h 0.02473 a 3.2481772,3.2538857 0 0 0 3.246275,-3.251983 l 0.08182,-15.534926 c -0.0019,-4.894148 -4.087336,-10.09656 -11.660708,-10.09656 z m 0.917177,22.767685 c -1.632652,0.431949 -3.18348,0.224538 -4.148229,-0.555634 -0.43956,-0.357736 -0.957137,-1.000902 -0.909565,-2.041766 0.03444,-0.764948 0.31968,-1.343417 0.898148,-1.822937 0.618429,-0.511868 2.298651,-1.469005 6.195703,-1.469005 0.667903,0 1.404309,0.0293 2.21112,0.09229 l -0.0019,3.156841 c -0.05137,0.949525 -1.665,1.958039 -4.243371,2.641165 z"
         id="path23"
         style="fill:#ffffff;stroke-width:0.190285" />
      <path
         d="m 107.02563,32.490886 c -2.34015,0 -4.32774,0.511425 -5.95501,1.37155 a 3.3048933,3.3126421 0 0 0 -5.389335,2.56875 v 22.157895 a 3.3048975,3.3126463 0 1 0 6.609795,0 V 42.791073 c 0,-0.862063 0.34094,-3.67684 4.73649,-3.67684 4.39361,0 4.7365,2.814777 4.7365,3.67684 v 15.798008 a 3.3048933,3.3126421 0 1 0 6.60978,0 V 42.793009 c -0.002,-5.120066 -3.89768,-10.300186 -11.34628,-10.300186 z"
         id="path24"
         style="fill:#ffffff;stroke-width:0.193723" />
    </g>
    <g
       id="g17"
       transform="matrix(0.85055941,0,0,0.85055941,5.5847924,1.886058)">
      <circle
         cx="167.25816"
         r="7.9566722"
         cy="21.486668"
         id="circle28"
         style="fill:#da2037;fill-opacity:1;stroke-width:2.65222" />
      <circle
         cx="146.04037"
         r="7.9566722"
         cy="63.922253"
         id="circle25"
         style="fill:#da2037;fill-opacity:1;stroke-width:2.65222" />
      <circle
         r="7.9566722"
         cy="63.922253"
         cx="167.25816"
         id="circle26"
         style="fill:#da2037;fill-opacity:1;stroke-width:2.65222" />
      <circle
         r="7.9566722"
         cy="63.922253"
         cx="188.47595"
         id="circle27"
         style="fill:#da2037;fill-opacity:1;stroke-width:2.65222" />
      <circle
         cy="42.70446"
         r="7.9566722"
         cx="188.47595"
         id="circle29"
         style="fill:#da2037;fill-opacity:1;stroke-width:2.65222" />
    </g>
  </g>
</svg>
