<?xml version="1.0" encoding="UTF-8" standalone="no"?>
<!DOCTYPE svg PUBLIC "-//W3C//DTD SVG 1.1//EN" "http://www.w3.org/Graphics/SVG/1.1/DTD/svg11.dtd">
<!-- Generated by graphviz version 2.40.1 (20161225.0304)
 -->
<!-- Title: Dependencies Pages: 1 -->
<svg width="522pt" height="401pt" viewBox="0.00 0.00 522.00 400.93" xmlns="http://www.w3.org/2000/svg" xmlns:xlink="http://www.w3.org/1999/xlink">
<g id="graph0" class="graph" transform="scale(1 1) rotate(0) translate(4 396.9296)">
<title>Dependencies</title>
<polygon fill="#ffffff" stroke="transparent" points="-4,4 -4,-396.9296 518,-396.9296 518,4 -4,4"/>
<g id="clust1" class="cluster">
<title>cluster_darkpan</title>
<polygon fill="#cccccc" stroke="#cccccc" points="238,-123.3296 238,-272.1296 362,-272.1296 362,-123.3296 238,-123.3296"/>
<text text-anchor="middle" x="300" y="-255.5296" font-family="Times,serif" font-size="14.00" fill="#000000">DarkPAN</text>
</g>
<g id="clust2" class="cluster">
<title>cluster_cpan</title>
<polygon fill="#e5e5e5" stroke="#e5e5e5" points="8,-123.3296 8,-348.9296 230,-348.9296 230,-123.3296 8,-123.3296"/>
<text text-anchor="middle" x="119" y="-332.3296" font-family="Times,serif" font-size="14.00" fill="#000000">CPAN</text>
</g>
<g id="clust3" class="cluster">
<title>cluster_backpan</title>
<polygon fill="#a6a6a6" stroke="#a6a6a6" points="370,-123.3296 370,-272.1296 506,-272.1296 506,-123.3296 370,-123.3296"/>
<text text-anchor="middle" x="438" y="-255.5296" font-family="Times,serif" font-size="14.00" fill="#000000">BackPAN</text>
</g>
<!-- MyCorp::d -->
<g id="node1" class="node">
<title>MyCorp::d</title>
<ellipse fill="#ffffff" stroke="#ffffff" cx="300" cy="-221.3296" rx="53.9136" ry="18"/>
<text text-anchor="middle" x="300" y="-217.1296" font-family="Times,serif" font-size="14.00" fill="#000000">MyCorp::d</text>
</g>
<!-- MyCorp::e -->
<g id="node2" class="node">
<title>MyCorp::e</title>
<ellipse fill="#ffffff" stroke="#ffffff" cx="299" cy="-149.3296" rx="53.3302" ry="18"/>
<text text-anchor="middle" x="299" y="-145.1296" font-family="Times,serif" font-size="14.00" fill="#000000">MyCorp::e</text>
</g>
<!-- MyCorp::d&#45;&gt;MyCorp::e -->
<g id="edge1" class="edge">
<title>MyCorp::d-&gt;MyCorp::e</title>
<path fill="none" stroke="#000000" d="M299.7477,-203.161C299.6407,-195.4606 299.5135,-186.3039 299.3947,-177.7462"/>
<polygon fill="#000000" stroke="#000000" points="302.8944,-177.6933 299.2557,-167.7429 295.8951,-177.7905 302.8944,-177.6933"/>
</g>
<!-- MyCorp::App -->
<g id="node12" class="node">
<title>MyCorp::App</title>
<polygon fill="none" stroke="#000000" points="346.8302,-95.495 251.1698,-95.495 251.1698,.1654 346.8302,.1654 346.8302,-95.495"/>
<polyline fill="none" stroke="#000000" points="263.1698,-95.495 251.1698,-83.495 "/>
<polyline fill="none" stroke="#000000" points="251.1698,-11.8346 263.1698,.1654 "/>
<polyline fill="none" stroke="#000000" points="334.8302,.1654 346.8302,-11.8346 "/>
<polyline fill="none" stroke="#000000" points="346.8302,-83.495 334.8302,-95.495 "/>
<text text-anchor="middle" x="299" y="-43.4648" font-family="Times,serif" font-size="14.00" fill="#000000">MyCorp::App</text>
</g>
<!-- MyCorp::e&#45;&gt;MyCorp::App -->
<g id="edge13" class="edge">
<title>MyCorp::e-&gt;MyCorp::App</title>
<path fill="none" stroke="#000000" d="M299,-131.154C299,-123.772 299,-114.7965 299,-105.5026"/>
<polygon fill="#000000" stroke="#000000" points="302.5001,-105.353 299,-95.353 295.5001,-105.353 302.5001,-105.353"/>
</g>
<!-- CPAN::a -->
<g id="node3" class="node">
<title>CPAN::a</title>
<ellipse fill="#ffffff" stroke="#ffffff" cx="63" cy="-298.1296" rx="46.3836" ry="18"/>
<text text-anchor="middle" x="63" y="-293.9296" font-family="Times,serif" font-size="14.00" fill="#000000">CPAN::a</text>
</g>
<!-- CPAN::b -->
<g id="node4" class="node">
<title>CPAN::b</title>
<ellipse fill="#ffffff" stroke="#ffffff" cx="63" cy="-221.3296" rx="46.967" ry="18"/>
<text text-anchor="middle" x="63" y="-217.1296" font-family="Times,serif" font-size="14.00" fill="#000000">CPAN::b</text>
</g>
<!-- CPAN::a&#45;&gt;CPAN::b -->
<g id="edge2" class="edge">
<title>CPAN::a-&gt;CPAN::b</title>
<path fill="none" stroke="#000000" d="M63,-279.9291C63,-270.8428 63,-259.6472 63,-249.4845"/>
<polygon fill="#000000" stroke="#000000" points="66.5001,-249.3994 63,-239.3995 59.5001,-249.3995 66.5001,-249.3994"/>
</g>
<!-- CPAN::c -->
<g id="node5" class="node">
<title>CPAN::c</title>
<ellipse fill="#ffffff" stroke="#ffffff" cx="119" cy="-149.3296" rx="46.3836" ry="18"/>
<text text-anchor="middle" x="119" y="-145.1296" font-family="Times,serif" font-size="14.00" fill="#000000">CPAN::c</text>
</g>
<!-- CPAN::b&#45;&gt;CPAN::c -->
<g id="edge3" class="edge">
<title>CPAN::b-&gt;CPAN::c</title>
<path fill="none" stroke="#000000" d="M76.556,-203.9004C83.3658,-195.1449 91.7453,-184.3714 99.2548,-174.7163"/>
<polygon fill="#000000" stroke="#000000" points="102.1921,-176.6406 105.5688,-166.5983 96.6666,-172.343 102.1921,-176.6406"/>
</g>
<!-- CPAN::c&#45;&gt;MyCorp::App -->
<g id="edge10" class="edge">
<title>CPAN::c-&gt;MyCorp::App</title>
<path fill="none" stroke="#000000" d="M145.5596,-134.3286C170.8567,-120.0407 209.7593,-98.0684 242.0621,-79.8236"/>
<polygon fill="#000000" stroke="#000000" points="243.9954,-82.7514 250.9813,-74.786 240.5529,-76.6564 243.9954,-82.7514"/>
</g>
<!-- CPAN::f -->
<g id="node6" class="node">
<title>CPAN::f</title>
<ellipse fill="#ffffff" stroke="#ffffff" cx="175" cy="-298.1296" rx="45.2401" ry="18"/>
<text text-anchor="middle" x="175" y="-293.9296" font-family="Times,serif" font-size="14.00" fill="#000000">CPAN::f</text>
</g>
<!-- CPAN::g -->
<g id="node7" class="node">
<title>CPAN::g</title>
<ellipse fill="#ffffff" stroke="#ffffff" cx="175" cy="-221.3296" rx="46.967" ry="18"/>
<text text-anchor="middle" x="175" y="-217.1296" font-family="Times,serif" font-size="14.00" fill="#000000">CPAN::g</text>
</g>
<!-- CPAN::f&#45;&gt;CPAN::g -->
<g id="edge4" class="edge">
<title>CPAN::f-&gt;CPAN::g</title>
<path fill="none" stroke="#000000" d="M175,-279.9291C175,-270.8428 175,-259.6472 175,-249.4845"/>
<polygon fill="#000000" stroke="#000000" points="178.5001,-249.3994 175,-239.3995 171.5001,-249.3995 178.5001,-249.3994"/>
</g>
<!-- CPAN::g&#45;&gt;MyCorp::e -->
<g id="edge7" class="edge">
<title>CPAN::g-&gt;MyCorp::e</title>
<path fill="none" stroke="#000000" d="M200.9945,-206.236C219.1005,-195.7229 243.476,-181.5694 263.3875,-170.0078"/>
<polygon fill="#000000" stroke="#000000" points="265.2929,-172.9487 272.1833,-164.9006 261.7779,-166.8952 265.2929,-172.9487"/>
</g>
<!-- BackPAN::d -->
<g id="node8" class="node">
<title>BackPAN::d</title>
<ellipse fill="#ffffff" stroke="#ffffff" cx="438" cy="-221.3296" rx="60.2711" ry="18"/>
<text text-anchor="middle" x="438" y="-217.1296" font-family="Times,serif" font-size="14.00" fill="#000000">BackPAN::d</text>
</g>
<!-- BackPAN::h -->
<g id="node9" class="node">
<title>BackPAN::h</title>
<ellipse fill="#ffffff" stroke="#ffffff" cx="438" cy="-149.3296" rx="60.2711" ry="18"/>
<text text-anchor="middle" x="438" y="-145.1296" font-family="Times,serif" font-size="14.00" fill="#000000">BackPAN::h</text>
</g>
<!-- BackPAN::d&#45;&gt;BackPAN::h -->
<g id="edge5" class="edge">
<title>BackPAN::d-&gt;BackPAN::h</title>
<path fill="none" stroke="#000000" d="M438,-203.161C438,-195.4606 438,-186.3039 438,-177.7462"/>
<polygon fill="#000000" stroke="#000000" points="441.5001,-177.7428 438,-167.7429 434.5001,-177.7429 441.5001,-177.7428"/>
</g>
<!-- BackPAN::h&#45;&gt;MyCorp::App -->
<g id="edge12" class="edge">
<title>BackPAN::h-&gt;MyCorp::App</title>
<path fill="none" stroke="#000000" d="M415.047,-132.5417C398.7095,-120.5924 376.0209,-103.998 355.0355,-88.6492"/>
<polygon fill="#000000" stroke="#000000" points="356.925,-85.695 346.7873,-82.6165 352.7925,-91.345 356.925,-85.695"/>
</g>
<!-- libf.so -->
<g id="node10" class="node">
<title>libf.so</title>
<ellipse fill="none" stroke="#000000" cx="175" cy="-374.9296" rx="35.3909" ry="18"/>
<text text-anchor="middle" x="175" y="-370.7296" font-family="Times,serif" font-size="14.00" fill="#000000">libf.so</text>
</g>
<!-- libf.so&#45;&gt;CPAN::f -->
<g id="edge6" class="edge">
<title>libf.so-&gt;CPAN::f</title>
<path fill="none" stroke="#000000" d="M175,-356.7291C175,-347.6428 175,-336.4472 175,-326.2845"/>
<polygon fill="#000000" stroke="#000000" points="178.5001,-326.1994 175,-316.1995 171.5001,-326.1995 178.5001,-326.1994"/>
</g>
<!-- /usr/bin/d -->
<g id="node11" class="node">
<title>/usr/bin/d</title>
<ellipse fill="none" stroke="#000000" cx="369" cy="-298.1296" rx="48.1109" ry="18"/>
<text text-anchor="middle" x="369" y="-293.9296" font-family="Times,serif" font-size="14.00" fill="#000000">/usr/bin/d</text>
</g>
<!-- /usr/bin/d&#45;&gt;MyCorp::d -->
<g id="edge9" class="edge">
<title>/usr/bin/d-&gt;MyCorp::d</title>
<path fill="none" stroke="#000000" d="M353.3428,-280.7025C344.1679,-270.4904 332.4281,-257.4235 322.299,-246.1494"/>
<polygon fill="#000000" stroke="#000000" points="324.882,-243.7873 315.5952,-238.6877 319.6749,-248.4656 324.882,-243.7873"/>
</g>
<!-- /usr/bin/d&#45;&gt;BackPAN::d -->
<g id="edge8" class="edge">
<title>/usr/bin/d-&gt;BackPAN::d</title>
<path fill="none" stroke="#000000" d="M384.6572,-280.7025C393.6799,-270.6598 405.183,-257.8563 415.1955,-246.712"/>
<polygon fill="#000000" stroke="#000000" points="418.0863,-248.7315 422.1659,-238.9536 412.8791,-244.0532 418.0863,-248.7315"/>
</g>
<!-- liba&#45;0.1.1.so -->
<g id="node13" class="node">
<title>liba-0.1.1.so</title>
<ellipse fill="none" stroke="#000000" cx="63" cy="-374.9296" rx="59.0921" ry="18"/>
<text text-anchor="middle" x="63" y="-370.7296" font-family="Times,serif" font-size="14.00" fill="#000000">liba-0.1.1.so</text>
</g>
<!-- liba&#45;0.1.1.so&#45;&gt;CPAN::a -->
<g id="edge11" class="edge">
<title>liba-0.1.1.so-&gt;CPAN::a</title>
<path fill="none" stroke="#000000" d="M63,-356.7291C63,-347.6428 63,-336.4472 63,-326.2845"/>
<polygon fill="#000000" stroke="#000000" points="66.5001,-326.1994 63,-316.1995 59.5001,-326.1995 66.5001,-326.1994"/>
</g>
</g>
</svg>